<mxfile host="app.diagrams.net" modified="2023-06-29T12:23:30.104Z" agent="Mozilla/5.0 (X11; Linux x86_64; rv:102.0) Gecko/20100101 Firefox/102.0" version="21.5.2" etag="ppiXWbYps4dFg4IYTRX8" type="github">
  <diagram name="PÃ¡gina-1" id="3yUdsHknkBLvBT9kWdxG">
    <mxGraphModel>
      <root>
        <mxCell id="0" />
        <mxCell id="1" parent="0" />
      </root>
    </mxGraphModel>
  </diagram>
</mxfile>
